HIERARCHY
ROOT Hips
{
	OFFSET 0.000000 0.000000 0.000000
	CHANNELS 6 Xposition Yposition Zposition Xrotation Yrotation Zrotation
	JOINT LeftUpLeg_virtual
	{
		OFFSET 0.000000 0.000000 0.000000
		CHANNELS 3 Xrotation Yrotation Zrotation
		JOINT LeftUpLeg
		{
			OFFSET 15.427100 -6.655098 0.678600
			CHANNELS 3 Xrotation Yrotation Zrotation
			JOINT LeftLeg
			{
				OFFSET 4.081073 -39.591068 13.024000
				CHANNELS 3 Xrotation Yrotation Zrotation
				JOINT LeftFoot
				{
					OFFSET -4.081074 -37.707932 -15.979700
					CHANNELS 3 Xrotation Yrotation Zrotation
					JOINT LeftToeBase
					{
						OFFSET 5.346399 -15.068900 20.645000
						CHANNELS 3 Xrotation Yrotation Zrotation
						JOINT LeftToe_End
						{
							OFFSET 2.754700 0.931300 11.300900
							CHANNELS 3 Xrotation Yrotation Zrotation
							End Site
							{
								OFFSET 0 0 0
							}
						}
					}
				}
			}
		}
	}
	JOINT RightUpLeg_virtual
	{
		OFFSET 0.000000 0.000000 0.000000
		CHANNELS 3 Xrotation Yrotation Zrotation
		JOINT RightUpLeg
		{
			OFFSET -15.569500 -6.655098 0.678600
			CHANNELS 3 Xrotation Yrotation Zrotation
			JOINT RightLeg
			{
				OFFSET -4.081825 -39.591045 13.023800
				CHANNELS 3 Xrotation Yrotation Zrotation
				JOINT RightFoot
				{
					OFFSET 4.081824 -37.707954 -15.979600
					CHANNELS 3 Xrotation Yrotation Zrotation
					JOINT RightToeBase
					{
						OFFSET -5.346400 -15.068900 20.645000
						CHANNELS 3 Xrotation Yrotation Zrotation
						JOINT RightToe_End
						{
							OFFSET -2.754700 0.931300 11.300900
							CHANNELS 3 Xrotation Yrotation Zrotation
							End Site
							{
								OFFSET 0 0 0
							}
						}
					}
				}
			}
		}
	}
	JOINT Spine_virtual
	{
		OFFSET 0.000000 0.000000 0.000000
		CHANNELS 3 Xrotation Yrotation Zrotation
		JOINT Spine
		{
			OFFSET -0.279200 12.230698 -2.892100
			CHANNELS 3 Xrotation Yrotation Zrotation
			JOINT Spine1
			{
				OFFSET -0.232667 10.192268 -1.242267
				CHANNELS 3 Xrotation Yrotation Zrotation
				JOINT Spine1_split
				{
					OFFSET -0.232667 10.192268 -1.242267
					CHANNELS 3 Xrotation Yrotation Zrotation
					JOINT Spine2
					{
						OFFSET -0.232667 10.192268 -1.242267
						CHANNELS 3 Xrotation Yrotation Zrotation
						JOINT Neck_virtual
						{
							OFFSET 0.000000 0.000000 0.000000
							CHANNELS 3 Xrotation Yrotation Zrotation
							JOINT Neck
							{
								OFFSET -0.418800 17.814194 8.416900
								CHANNELS 3 Xrotation Yrotation Zrotation
								JOINT Head
								{
									OFFSET 0.000000 7.031097 3.806800
									CHANNELS 3 Xrotation Yrotation Zrotation
									JOINT HeadTop_End
									{
										OFFSET 0.000000 24.646606 12.978600
										CHANNELS 3 Xrotation Yrotation Zrotation
										End Site
										{
											OFFSET 0 0 0
										}
									}
								}
							}
						}
						JOINT LeftShoulder_virtual
						{
							OFFSET 0.000000 0.000000 0.000000
							CHANNELS 3 Xrotation Yrotation Zrotation
							JOINT LeftShoulder
							{
								OFFSET 8.476499 7.247704 -3.868750
								CHANNELS 3 Xrotation Yrotation Zrotation
								JOINT LeftShoulder_split
								{
									OFFSET 8.476499 7.247704 -3.868750
									CHANNELS 3 Xrotation Yrotation Zrotation
									JOINT LeftArm
									{
										OFFSET 9.308998 -2.777710 0.208600
										CHANNELS 3 Xrotation Yrotation Zrotation
										JOINT LeftForeArm
										{
											OFFSET 29.972298 0.000000 0.000000
											CHANNELS 3 Xrotation Yrotation Zrotation
											JOINT LeftHand
											{
												OFFSET 26.026505 0.000000 0.000000
												CHANNELS 3 Xrotation Yrotation Zrotation
												End Site
												{
													OFFSET 0 0 0
												}
											}
										}
									}
								}
							}
						}
						JOINT RightShoulder_virtual
						{
							OFFSET 0.000000 0.000000 0.000000
							CHANNELS 3 Xrotation Yrotation Zrotation
							JOINT RightShoulder
							{
								OFFSET -7.570500 7.247704 -3.868750
								CHANNELS 3 Xrotation Yrotation Zrotation
								JOINT RightShoulder_split
								{
									OFFSET -7.570500 7.247704 -3.868750
									CHANNELS 3 Xrotation Yrotation Zrotation
									JOINT RightArm
									{
										OFFSET -9.308998 -2.777710 0.208500
										CHANNELS 3 Xrotation Yrotation Zrotation
										JOINT RightForeArm
										{
											OFFSET -29.972300 0.000000 0.000000
											CHANNELS 3 Xrotation Yrotation Zrotation
											JOINT RightHand
											{
												OFFSET -26.026505 0.000000 0.000000
												CHANNELS 3 Xrotation Yrotation Zrotation
												End Site
												{
													OFFSET 0 0 0
												}
											}
										}
									}
								}
							}
						}
					}
				}
			}
		}
	}
}
MOTION
Frames: 11
Frame Time: 0.03333333
-5.376854 70.920555 -9.622341 0.000000 0.000000 0.000000 2.635145 1.374528 6.870874 -56.769039 12.471589 32.547180 49.700271 -24.242903 1.486303 4.186817 -2.636580 -21.037621 -0.865172 -4.826617 2.394929 0.000000 0.000000 0.000000 0.950122 3.794695 6.915240 -26.745161 -2.443903 -35.332060 54.780054 17.397318 -3.011367 -32.627144 -8.780567 35.478728 10.872404 1.837793 -7.636481 0.000000 0.000000 0.000000 0.896705 8.147607 7.756104 2.720563 3.062223 -2.630438 10.602965 4.812046 -4.253340 0.222479 -1.971441 0.438105 0.000000 0.000000 0.000000 8.720517 6.363565 -2.520609 -28.896905 27.522705 27.294293 -0.265796 22.934631 0.211504 0.000000 0.000000 0.000000 4.649618 3.395922 -3.126737 -1.422464 -10.434027 10.476130 -2.702540 -2.784067 1.079329 0.600228 36.610429 -61.623859 -51.345278 -67.552436 -45.235923 0.000000 0.000000 0.000000 4.118840 2.449196 -1.924727 1.976832 3.841502 -5.152838 -14.480952 5.133355 -4.793636 -7.265125 -19.016823 51.940010 -17.548901 46.916706 21.070311 0.000000 0.000000 0.000000 
-5.622709 71.177628 -9.768410 0.000000 0.000000 0.000000 2.384431 1.380389 6.836405 -56.670312 12.396646 32.540176 48.886847 -24.086531 1.132859 4.792530 -2.216721 -20.535356 0.301379 -4.811634 2.089420 0.000000 0.000000 0.000000 0.714332 3.615608 6.902447 -26.317369 -2.597115 -35.100055 53.901507 17.085068 -2.764531 -32.673832 -8.829332 34.943886 11.020256 1.863136 -7.691150 0.000000 0.000000 0.000000 0.324800 7.960283 7.747677 2.623184 3.029207 -2.714122 10.600743 4.658988 -4.327842 0.153911 -1.910241 0.337756 0.000000 0.000000 0.000000 8.664263 6.275768 -2.500689 -28.894268 27.521648 27.382049 -0.605042 23.754857 -0.204925 0.000000 0.000000 0.000000 4.530820 3.256266 -3.132233 -1.274066 -10.602774 10.649990 -2.778884 -1.964671 0.545145 0.163769 36.586417 -61.672305 -54.073044 -68.253008 -48.136588 0.000000 0.000000 0.000000 4.139475 2.347512 -1.821381 1.849148 3.404800 -5.524359 -14.430390 4.635892 -4.632435 -6.173271 -19.593695 52.427443 -18.273367 47.999718 21.748197 0.000000 0.000000 0.000000 
-5.842626 71.702751 -9.949619 0.000000 0.000000 0.000000 2.092112 0.276981 6.825645 -56.309183 12.861060 32.672466 47.638124 -23.620963 0.773236 5.159177 -1.382098 -19.933169 1.215963 -4.818477 1.480753 0.000000 0.000000 0.000000 0.185277 1.878255 6.984829 -26.187398 -2.520452 -34.469069 53.026249 16.761153 -2.471967 -32.031169 -8.491270 34.163114 10.329382 1.869061 -7.532286 0.000000 0.000000 0.000000 -0.396069 6.990132 7.699156 2.778861 3.029882 -2.850822 10.592047 4.430288 -4.440955 0.092708 -1.823156 0.232762 0.000000 0.000000 0.000000 8.603054 6.109020 -2.498753 -29.016894 27.530720 27.863384 -1.466436 25.816244 -0.324665 0.000000 0.000000 0.000000 4.452714 3.102474 -3.132600 -1.057061 -10.874847 10.963594 -2.524178 -0.940153 -0.298998 -0.542974 37.104736 -61.238390 -58.747803 -68.718199 -53.133247 0.000000 0.000000 0.000000 4.161110 2.195401 -1.792743 1.678470 2.763580 -6.408717 -14.841557 5.432218 -3.374016 -4.283678 -21.165336 53.551193 -19.311236 50.632735 22.493925 0.000000 0.000000 0.000000 
-6.140768 72.365250 -10.009518 0.000000 0.000000 0.000000 1.778357 -2.240052 6.774541 -55.887282 13.646788 33.010776 46.559391 -23.028113 0.602577 5.483519 -0.281292 -19.464202 1.547216 -4.825926 0.839920 0.000000 0.000000 0.000000 -0.322877 -0.795853 7.067212 -26.239329 -1.944053 -33.364764 52.272052 16.458355 -2.172604 -30.879784 -7.885178 33.084118 9.128922 1.841549 -7.126625 0.000000 0.000000 0.000000 -1.107594 5.023014 7.522448 3.214222 3.025158 -2.989350 10.614415 4.129254 -4.537235 0.090001 -1.785998 0.211196 0.000000 0.000000 0.000000 8.558984 5.867787 -2.503448 -29.278490 27.581895 28.586013 -2.875599 28.953650 0.022296 0.000000 0.000000 0.000000 4.424168 2.944324 -3.131453 -0.787777 -11.206550 11.323865 -2.079072 0.333311 -1.395162 -1.624438 37.978017 -60.197469 -64.229227 -68.842918 -58.997685 0.000000 0.000000 0.000000 4.172835 2.001826 -1.841154 1.460388 2.178041 -7.565032 -15.577271 6.930637 -1.680418 -2.183342 -23.319077 54.886116 -20.353108 53.761939 23.045179 0.000000 0.000000 0.000000 
-6.567995 72.928619 -9.902752 0.000000 0.000000 0.000000 1.496574 -5.996932 6.719528 -55.463708 14.608431 33.508201 46.095758 -22.404803 0.905769 5.771170 1.131672 -19.055360 1.791297 -4.795363 0.288592 0.000000 0.000000 0.000000 -0.512757 -4.092428 7.036923 -26.551008 -0.640927 -31.831707 51.726006 16.112580 -1.916642 -29.478950 -7.119589 31.569773 8.397167 1.750003 -6.524729 0.000000 0.000000 0.000000 -1.704343 2.226981 7.166485 3.870103 2.975386 -3.064685 10.654240 3.766871 -4.596313 0.098912 -1.792805 0.232110 0.000000 0.000000 0.000000 8.538351 5.568883 -2.514097 -29.618907 27.735627 29.217442 -4.837913 32.870483 0.987865 0.000000 0.000000 0.000000 4.455774 2.747427 -3.121780 -0.508291 -11.568955 11.569853 -1.377744 1.975408 -2.468755 -2.956924 38.912131 -58.560218 -69.360120 -68.785401 -64.528902 0.000000 0.000000 0.000000 4.152863 1.783169 -1.937440 1.208456 1.875125 -8.702097 -16.252696 7.779579 -0.368484 -0.727777 -25.474403 55.641296 -21.043794 56.399058 23.114899 0.000000 0.000000 0.000000 
-7.048412 73.337189 -9.604694 0.000000 0.000000 0.000000 1.269195 -10.723827 6.680332 -54.780573 15.735887 33.949052 46.113828 -21.640401 1.686335 5.655954 3.107790 -18.432205 2.684393 -4.706835 -0.207834 0.000000 0.000000 0.000000 -0.403825 -7.917973 6.930559 -27.267158 1.357613 -30.074942 51.458171 15.726862 -1.725773 -27.831353 -6.273491 29.788203 8.565496 1.633429 -5.886975 0.000000 0.000000 0.000000 -2.118714 -1.323812 6.706547 4.655155 2.815818 -3.027666 10.652070 3.371897 -4.637472 0.110124 -1.808552 0.296187 0.000000 0.000000 0.000000 8.498532 5.217168 -2.540750 -30.011838 28.056855 29.506947 -7.334494 37.134533 2.738142 0.000000 0.000000 0.000000 4.470534 2.500421 -3.148261 -0.233829 -11.936898 11.578893 -0.712287 3.411108 -3.319857 -4.082010 39.561921 -56.573613 -73.583711 -68.799225 -69.121958 0.000000 0.000000 0.000000 4.053966 1.524293 -2.081116 1.006050 2.060572 -9.581806 -16.528161 7.884964 0.506801 -0.614437 -27.388280 55.209946 -21.146066 57.912327 22.585294 0.000000 0.000000 0.000000 
-7.556522 73.681648 -9.196583 0.000000 0.000000 0.000000 1.296183 -16.144547 6.766779 -53.694624 17.035067 34.271666 46.015749 -20.874646 2.822112 5.001793 5.595550 -17.945364 4.306992 -4.580016 -0.458851 0.000000 0.000000 0.000000 -0.025460 -12.117577 6.876584 -28.560480 3.732393 -28.307318 51.382557 15.411729 -1.651953 -25.802167 -5.289000 28.387040 9.132339 1.557553 -5.488324 0.000000 0.000000 0.000000 -2.183016 -5.503716 6.273110 5.465580 2.541625 -2.855156 10.527896 2.952447 -4.713727 0.182417 -1.759522 0.333921 0.000000 0.000000 0.000000 8.351165 4.806912 -2.626507 -30.283519 28.557091 29.254885 -10.315287 41.546910 5.335121 0.000000 0.000000 0.000000 4.413114 2.172554 -3.254298 0.008439 -12.208543 11.335097 -0.633936 4.126985 -3.816510 -4.524384 39.858884 -54.703265 -76.225403 -68.990450 -72.026469 0.000000 0.000000 0.000000 3.815978 1.214765 -2.261342 0.916467 2.648164 -10.123157 -16.105521 7.843087 1.016733 -1.947396 -28.852806 53.320524 -20.688226 58.155277 21.600115 0.000000 0.000000 0.000000 
-7.969536 74.050446 -8.754688 0.000000 0.000000 0.000000 1.630197 -21.617706 7.150204 -52.176105 18.412373 34.379416 45.180933 -20.273116 3.964349 3.978985 8.275523 -17.828844 6.567377 -4.453757 -0.506510 0.000000 0.000000 0.000000 0.700975 -16.995519 7.108789 -30.482571 6.037875 -26.611102 51.392570 15.203424 -1.768838 -23.359153 -4.113088 27.747903 9.787726 1.573022 -5.574706 0.000000 0.000000 0.000000 -1.947649 -10.003996 6.076556 6.219286 2.128230 -2.663687 10.160316 2.511148 -4.906600 0.259001 -1.726045 0.321793 0.000000 0.000000 0.000000 8.013608 4.317039 -2.817244 -30.261809 29.234610 28.436852 -13.570377 45.866851 8.778164 0.000000 0.000000 0.000000 4.205594 1.748113 -3.492261 0.174775 -12.258105 11.017610 -1.024228 4.540481 -3.238411 -4.098682 39.968443 -53.414781 -77.179184 -69.342020 -73.102961 0.000000 0.000000 0.000000 3.383321 0.820939 -2.501055 0.987619 3.434611 -10.383149 -15.394734 7.604751 1.065564 -4.461515 -29.943802 50.139712 -19.972016 57.383568 20.611281 0.000000 0.000000 0.000000 
-8.254932 74.538612 -8.439945 0.000000 0.000000 0.000000 2.427158 -26.805789 7.929491 -50.505608 19.697753 34.545956 43.404001 -20.081513 4.691489 3.432660 10.625147 -18.425487 8.851745 -4.371287 -0.296624 0.000000 0.000000 0.000000 1.696387 -22.392599 7.808890 -32.834205 7.882828 -25.059827 51.197087 14.987334 -2.020580 -20.742053 -2.798725 27.740820 10.639696 1.685407 -6.242859 0.000000 0.000000 0.000000 -1.378643 -14.574348 6.272015 6.831166 1.556670 -2.592412 9.473226 2.050935 -5.242785 0.356243 -1.704365 0.360350 0.000000 0.000000 0.000000 7.482549 3.730702 -3.163676 -29.900806 30.071513 27.341763 -17.226772 49.985196 13.147066 0.000000 0.000000 0.000000 3.773075 1.227494 -3.899194 0.305072 -11.952691 11.010606 -1.565530 4.707428 -2.056392 -3.352890 40.098620 -52.578711 -75.846245 -69.513260 -71.704514 0.000000 0.000000 0.000000 2.696695 0.295782 -2.862277 1.215895 4.130019 -10.406948 -15.505079 7.230130 1.130336 -7.665177 -31.013847 46.026483 -19.589356 56.234535 20.280469 0.000000 0.000000 0.000000 
-8.359027 75.139267 -8.376911 0.000000 0.000000 0.000000 3.792667 -31.466784 9.215208 -49.117335 20.644508 35.044311 41.083161 -20.360854 4.839947 4.068439 12.269964 -19.786244 10.382236 -4.384392 0.239313 0.000000 0.000000 0.000000 2.991826 -27.829119 9.002539 -35.372283 9.292888 -23.683715 50.574190 14.656124 -2.428856 -18.353705 -1.412319 28.087111 11.712671 1.856444 -7.471719 0.000000 0.000000 0.000000 -0.309100 -18.835814 6.921795 7.211874 0.884271 -2.720783 8.535669 1.532408 -5.720029 0.359246 -1.714235 0.389350 0.000000 0.000000 0.000000 6.829524 3.033778 -3.679502 -29.186078 31.027494 26.325086 -21.730582 54.139146 18.649644 0.000000 0.000000 0.000000 3.138124 0.611120 -4.431837 0.457397 -11.270891 11.646330 -1.819504 4.764010 -0.826713 -2.930234 40.326881 -51.774176 -72.626631 -69.246486 -68.341937 0.000000 0.000000 0.000000 1.779042 -0.382176 -3.388236 1.531039 4.437869 -10.333201 -15.742054 7.055671 1.308390 -11.326119 -32.267091 40.948453 -20.163125 55.881688 21.272568 0.000000 0.000000 0.000000 
-8.282420 75.772003 -8.545013 0.000000 0.000000 0.000000 5.588853 -35.374605 10.894642 -47.930873 21.215753 35.877993 38.898084 -20.730083 4.304620 5.252245 13.590189 -20.786550 10.982497 -4.534845 0.816444 0.000000 0.000000 0.000000 4.742935 -32.688927 10.638485 -37.856631 10.509719 -22.490594 49.751982 14.186350 -2.949896 -16.475717 -0.108076 28.428685 13.323828 1.992805 -9.143738 0.000000 0.000000 0.000000 1.215765 -22.606587 7.996392 7.404460 0.115681 -3.083546 7.485629 0.889242 -6.290375 0.225758 -1.809539 0.385291 0.000000 0.000000 0.000000 6.202135 2.219673 -4.304145 -28.276297 31.998381 25.818409 -27.956926 58.156513 25.697460 0.000000 0.000000 0.000000 2.348808 -0.086873 -5.046281 0.712064 -10.301921 13.162261 -1.868907 4.401874 -0.024594 -3.075518 40.612957 -50.425849 -68.569048 -68.335715 -64.208532 0.000000 0.000000 0.000000 0.781316 -1.228214 -4.047971 1.878803 4.080479 -10.183716 -15.417400 7.003250 0.934783 -15.231809 -33.687722 34.977303 -22.026810 56.961920 23.927911 0.000000 0.000000 0.000000 
